<?xml version="1.0" encoding="iso-8859-1"?>
<!-- Generator: Adobe Illustrator 19.0.0, SVG Export Plug-In . SVG Version: 6.00 Build 0)  -->
<svg xmlns="http://www.w3.org/2000/svg" xmlns:xlink="http://www.w3.org/1999/xlink" version="1.1" id="Capa_1" x="0px" y="0px" viewBox="0 0 512 512" style="enable-background:new 0 0 512 512;" xml:space="preserve" width="512px" height="512px">
<g>
	<g>
		<path d="M505.549,152.863c-35.211-9.236-70.831-16.405-106.765-21.637c4.537,36.174,7.02,73.442,7.575,109.748H512    C511.428,211.867,509.445,181.784,505.549,152.863z" fill="#ff5500"/>
	</g>
</g>
<g>
	<g>
		<path d="M143.874,127.499c-4.981,37.395-7.616,75.917-8.204,113.475h105.301V120.989    C208.848,121.481,175.813,123.87,143.874,127.499z" fill="#ff5500"/>
	</g>
</g>
<g>
	<g>
		<path d="M343.43,4.811c-23.74-2.699-48.55-4.34-72.4-4.808v91.115c30.569,0.451,62.059,2.442,92.477,5.649    C358.391,65.942,351.546,35.303,343.43,4.811z" fill="#ff5500"/>
	</g>
</g>
<g>
	<g>
		<path d="M368.167,127.556c-31.954-3.631-65.002-5.919-97.138-6.407v119.824h105.269    C375.707,203.438,373.144,164.935,368.167,127.556z" fill="#ff5500"/>
	</g>
</g>
<g>
	<g>
		<path d="M271.029,421.642v90.355c23.988-0.47,48.936-2.124,72.815-4.85c8.069-30.282,14.842-60.741,19.941-91.388    C333.246,419.06,301.661,421.178,271.029,421.642z" fill="#ff5500"/>
	</g>
</g>
<g>
	<g>
		<path d="M168.546,4.813c-8.107,30.456-14.978,61.058-20.089,91.853c30.427-3.21,61.936-5.26,92.514-5.715V0.003    C217.113,0.471,192.296,2.111,168.546,4.813z" fill="#ff5500"/>
	</g>
</g>
<g>
	<g>
		<path d="M148.143,415.752c5.099,30.651,11.994,61.106,20.063,91.4c23.86,2.725,48.791,4.377,72.764,4.845v-90.364    C210.312,421.17,178.703,419.057,148.143,415.752z" fill="#ff5500"/>
	</g>
</g>
<g>
	<g>
		<path d="M6.473,152.659C2.561,181.649,0.572,211.799,0,240.974h105.609c0.552-36.258,3.091-73.479,7.616-109.6    C77.318,136.603,41.654,143.436,6.473,152.659z" fill="#ff5500"/>
	</g>
</g>
<g>
	<g>
		<path d="M135.222,271.032c0.587,37.753,3.928,76.431,8.949,113.985c31.873,3.686,64.809,6.1,96.799,6.597V271.032H135.222z" fill="#ff5500"/>
	</g>
</g>
<g>
	<g>
		<path d="M105.138,271.033H0c0.572,29.107,2.556,59.194,6.453,88.117c35.412,9.371,71.07,16.765,106.936,22.082    C108.821,344.922,105.686,307.515,105.138,271.033z" fill="#ff5500"/>
	</g>
</g>
<g>
	<g>
		<path d="M117.367,412.014c-35.317-4.934-70.509-11.29-105.426-20.032c6.06,33.812,11.439,55.89,18.188,79.559    c1.424,4.99,5.342,8.908,10.333,10.332c29.975,8.548,58.228,15.093,95.157,20.926    C128.001,472.722,122.156,442.417,117.367,412.014z" fill="#ff5500"/>
	</g>
</g>
<g>
	<g>
		<path d="M394.58,412.074c-4.784,30.381-10.568,60.668-18.182,90.721c36.962-5.837,65.181-12.378,95.139-20.922    c4.991-1.424,8.909-5.342,10.333-10.333c6.689-23.46,12.107-45.585,18.213-79.693C465.129,400.6,429.926,407.137,394.58,412.074z" fill="#ff5500"/>
	</g>
</g>
<g>
	<g>
		<path d="M40.463,30.133c-4.99,1.424-8.909,5.342-10.333,10.333c-6.698,23.487-12.118,45.627-18.229,79.789    c34.706-8.595,69.868-14.778,105.219-19.627c4.81-30.674,11.424-61.165,19.115-91.531C98.935,14.956,70.442,21.583,40.463,30.133z    " fill="#ff5500"/>
	</g>
</g>
<g>
	<g>
		<path d="M271.029,271.032v120.466c31.985-0.501,64.921-2.826,96.796-6.513c5.018-37.542,8.43-76.206,9.016-113.954H271.029z" fill="#ff5500"/>
	</g>
</g>
<g>
	<g>
		<path d="M406.931,271.032c-0.547,36.525-3.742,73.967-8.318,110.317c35.873-5.316,71.518-12.93,106.947-22.3    c3.887-28.892,5.87-58.943,6.441-88.018H406.931z" fill="#ff5500"/>
	</g>
</g>
<g>
	<g>
		<path d="M481.87,40.465c-1.424-4.99-5.342-8.909-10.333-10.333c-30.054-8.572-58.569-15.195-95.814-21.043    c7.68,30.332,14.257,60.791,19.065,91.426c35.352,4.844,70.552,10.873,105.264,19.466C493.981,86.118,488.6,64.06,481.87,40.465z" fill="#ff5500"/>
	</g>
</g>
<g>
</g>
<g>
</g>
<g>
</g>
<g>
</g>
<g>
</g>
<g>
</g>
<g>
</g>
<g>
</g>
<g>
</g>
<g>
</g>
<g>
</g>
<g>
</g>
<g>
</g>
<g>
</g>
<g>
</g>
</svg>
