<?xml version="1.0" encoding="UTF-8"?>
<svg width="256px" height="256px" viewBox="0 0 256 256" version="1.1" xmlns="http://www.w3.org/2000/svg" xmlns:xlink="http://www.w3.org/1999/xlink">
    <!-- Generator: Sketch 49.3 (51167) - http://www.bohemiancoding.com/sketch -->
    <title>tablemaker</title>
    <desc>Created with Sketch.</desc>
    <defs></defs>
    <g id="tablemaker" stroke="none" stroke-width="1" fill="none" fill-rule="evenodd">
        <g id="bg">
            <circle id="Oval-Copy" fill="#FF5500" cx="128" cy="128" r="128"></circle>
            <path d="M48,227.925935 C18.7372005,204.467999 0,168.422153 0,128 C0,57.307552 57.307552,0 128,0 C165.098612,0 198.510978,15.7826939 221.889017,41 L221.641505,41 C199.94208,24.0800455 172.6482,14 143,14 C72.307552,14 15,71.307552 15,142 C15,175.002098 27.4896112,205.087091 48,227.786146 L48,227.925935 Z" id="Combined-Shape" fill="#802B00"></path>
        </g>
        <path d="M116.139858,187.715911 L116.139858,171.913454 C116.139858,171.145292 115.89296,170.514294 115.399128,170.020463 C114.905296,169.526631 114.274299,169.279715 113.506119,169.279715 L87.1687069,169.279715 C86.400528,169.279715 85.7695346,169.526631 85.2757047,170.020463 C84.7818766,170.514294 84.5349662,171.145292 84.5349662,171.913454 L84.5349662,187.715911 C84.5349662,188.484089 84.7818766,189.115083 85.2757047,189.608913 C85.7695346,190.102741 86.400528,190.349651 87.1687069,190.349651 L113.506119,190.349651 C114.274299,190.349651 114.905296,190.102741 115.399128,189.608913 C115.89296,189.115083 116.139858,188.484089 116.139858,187.715911 Z M116.139858,156.111021 L116.139858,140.30857 C116.139858,139.540389 115.89296,138.909392 115.399128,138.41556 C114.905296,137.921729 114.274299,137.674831 113.506119,137.674831 L87.1687069,137.674831 C86.400528,137.674831 85.7695346,137.921729 85.2757047,138.41556 C84.7818766,138.909392 84.5349662,139.540389 84.5349662,140.30857 L84.5349662,156.111021 C84.5349662,156.879183 84.7818766,157.51018 85.2757047,158.004012 C85.7695346,158.497844 86.400528,158.74476 87.1687069,158.74476 L113.506119,158.74476 C114.274299,158.74476 114.905296,158.497844 115.399128,158.004012 C115.89296,157.51018 116.139858,156.879183 116.139858,156.111021 Z M158.279733,187.715911 L158.279733,171.913454 C158.279733,171.145292 158.032818,170.514294 157.538986,170.020463 C157.045154,169.526631 156.414157,169.279715 155.645976,169.279715 L129.30857,169.279715 C128.540389,169.279715 127.909392,169.526631 127.41556,170.020463 C126.921747,170.514294 126.674831,171.145292 126.674831,171.913454 L126.674831,187.715911 C126.674831,188.484089 126.921747,189.115083 127.41556,189.608913 C127.909392,190.102741 128.540389,190.349651 129.30857,190.349651 L155.645976,190.349651 C156.414157,190.349651 157.045154,190.102741 157.538986,189.608913 C158.032818,189.115083 158.279733,188.484089 158.279733,187.715911 Z M116.139858,124.506119 L116.139858,108.703668 C116.139858,107.935487 115.89296,107.30449 115.399128,106.810658 C114.905296,106.316845 114.274299,106.069929 113.506119,106.069929 L87.1687069,106.069929 C86.400528,106.069929 85.7695346,106.316845 85.2757047,106.810658 C84.7818766,107.30449 84.5349662,107.935487 84.5349662,108.703668 L84.5349662,124.506119 C84.5349662,125.274299 84.7818766,125.905296 85.2757047,126.39911 C85.7695346,126.892942 86.400528,127.139858 87.1687069,127.139858 L113.506119,127.139858 C114.274299,127.139858 114.905296,126.892942 115.399128,126.39911 C115.89296,125.905296 116.139858,125.274299 116.139858,124.506119 Z M158.279733,156.111021 L158.279733,140.30857 C158.279733,139.540389 158.032818,138.909392 157.538986,138.41556 C157.045154,137.921729 156.414157,137.674831 155.645976,137.674831 L129.30857,137.674831 C128.540389,137.674831 127.909392,137.921729 127.41556,138.41556 C126.921747,138.909392 126.674831,139.540389 126.674831,140.30857 L126.674831,156.111021 C126.674831,156.879183 126.921747,157.51018 127.41556,158.004012 C127.909392,158.497844 128.540389,158.74476 129.30857,158.74476 L155.645976,158.74476 C156.414157,158.74476 157.045154,158.497844 157.538986,158.004012 C158.032818,157.51018 158.279733,156.879183 158.279733,156.111021 Z M200.419591,187.715911 L200.419591,171.913454 C200.419591,171.145292 200.172675,170.514294 199.678843,170.020463 C199.185012,169.526631 198.554033,169.279715 197.785852,169.279715 L171.448427,169.279715 C170.680247,169.279715 170.049268,169.526631 169.555436,170.020463 C169.061605,170.514294 168.814689,171.145292 168.814689,171.913454 L168.814689,187.715911 C168.814689,188.484089 169.061605,189.115083 169.555436,189.608913 C170.049268,190.102741 170.680247,190.349651 171.448427,190.349651 L197.785852,190.349651 C198.554033,190.349651 199.185012,190.102741 199.678843,189.608913 C200.172675,189.115083 200.419591,188.484089 200.419591,187.715911 Z M158.279733,124.506119 L158.279733,108.703668 C158.279733,107.935487 158.032818,107.30449 157.538986,106.810658 C157.045154,106.316845 156.414157,106.069929 155.645976,106.069929 L129.30857,106.069929 C128.540389,106.069929 127.909392,106.316845 127.41556,106.810658 C126.921747,107.30449 126.674831,107.935487 126.674831,108.703668 L126.674831,124.506119 C126.674831,125.274299 126.921747,125.905296 127.41556,126.39911 C127.909392,126.892942 128.540389,127.139858 129.30857,127.139858 L155.645976,127.139858 C156.414157,127.139858 157.045154,126.892942 157.538986,126.39911 C158.032818,125.905296 158.279733,125.274299 158.279733,124.506119 Z M200.419591,156.111021 L200.419591,140.30857 C200.419591,139.540389 200.172675,138.909392 199.678843,138.41556 C199.185012,137.921729 198.554033,137.674831 197.785852,137.674831 L171.448427,137.674831 C170.680247,137.674831 170.049268,137.921729 169.555436,138.41556 C169.061605,138.909392 168.814689,139.540389 168.814689,140.30857 L168.814689,156.111021 C168.814689,156.879183 169.061605,157.51018 169.555436,158.004012 C170.049268,158.497844 170.680247,158.74476 171.448427,158.74476 L197.785852,158.74476 C198.554033,158.74476 199.185012,158.497844 199.678843,158.004012 C200.172675,157.51018 200.419591,156.879183 200.419591,156.111021 Z M200.419591,124.506119 L200.419591,108.703668 C200.419591,107.935487 200.172675,107.30449 199.678843,106.810658 C199.185012,106.316845 198.554033,106.069929 197.785852,106.069929 L171.448427,106.069929 C170.680247,106.069929 170.049268,106.316845 169.555436,106.810658 C169.061605,107.30449 168.814689,107.935487 168.814689,108.703668 L168.814689,124.506119 C168.814689,125.274299 169.061605,125.905296 169.555436,126.39911 C170.049268,126.892942 170.680247,127.139858 171.448427,127.139858 L197.785852,127.139858 C198.554033,127.139858 199.185012,126.892942 199.678843,126.39911 C200.172675,125.905296 200.419591,125.274299 200.419591,124.506119 Z M210.954546,98.168694 L210.954546,187.715911 C210.954546,191.337322 209.665137,194.437425 207.086246,197.01631 C204.507355,199.595194 201.407255,200.884617 197.785852,200.884617 L87.1687069,200.884617 C83.5472953,200.884617 80.4471928,199.595194 77.8683072,197.01631 C75.2894231,194.437425 74,191.337322 74,187.715911 L74,98.168694 C74,94.5472916 75.2894231,91.4471909 77.8683072,88.8682998 C80.4471928,86.2894087 83.5472953,85 87.1687069,85 L197.785852,85 C201.407255,85 204.507355,86.2894087 207.086246,88.8682998 C209.665137,91.4471909 210.954546,94.5472916 210.954546,98.168694 Z" id="Page-1" fill="#802B00"></path>
        <path d="M101.139858,172.715911 L101.139858,156.913454 C101.139858,156.145292 100.89296,155.514294 100.399128,155.020463 C99.9052965,154.526631 99.2742994,154.279715 98.5061187,154.279715 L72.1687069,154.279715 C71.400528,154.279715 70.7695346,154.526631 70.2757047,155.020463 C69.7818766,155.514294 69.5349662,156.145292 69.5349662,156.913454 L69.5349662,172.715911 C69.5349662,173.484089 69.7818766,174.115083 70.2757047,174.608913 C70.7695346,175.102741 71.400528,175.349651 72.1687069,175.349651 L98.5061187,175.349651 C99.2742994,175.349651 99.9052965,175.102741 100.399128,174.608913 C100.89296,174.115083 101.139858,173.484089 101.139858,172.715911 Z M101.139858,141.111021 L101.139858,125.30857 C101.139858,124.540389 100.89296,123.909392 100.399128,123.41556 C99.9052965,122.921729 99.2742994,122.674831 98.5061187,122.674831 L72.1687069,122.674831 C71.400528,122.674831 70.7695346,122.921729 70.2757047,123.41556 C69.7818766,123.909392 69.5349662,124.540389 69.5349662,125.30857 L69.5349662,141.111021 C69.5349662,141.879183 69.7818766,142.51018 70.2757047,143.004012 C70.7695346,143.497844 71.400528,143.74476 72.1687069,143.74476 L98.5061187,143.74476 C99.2742994,143.74476 99.9052965,143.497844 100.399128,143.004012 C100.89296,142.51018 101.139858,141.879183 101.139858,141.111021 Z M143.279733,172.715911 L143.279733,156.913454 C143.279733,156.145292 143.032818,155.514294 142.538986,155.020463 C142.045154,154.526631 141.414157,154.279715 140.645976,154.279715 L114.30857,154.279715 C113.540389,154.279715 112.909392,154.526631 112.41556,155.020463 C111.921747,155.514294 111.674831,156.145292 111.674831,156.913454 L111.674831,172.715911 C111.674831,173.484089 111.921747,174.115083 112.41556,174.608913 C112.909392,175.102741 113.540389,175.349651 114.30857,175.349651 L140.645976,175.349651 C141.414157,175.349651 142.045154,175.102741 142.538986,174.608913 C143.032818,174.115083 143.279733,173.484089 143.279733,172.715911 Z M101.139858,109.506119 L101.139858,93.7036675 C101.139858,92.9354868 100.89296,92.3044898 100.399128,91.810658 C99.9052965,91.3168446 99.2742994,91.0699288 98.5061187,91.0699288 L72.1687069,91.0699288 C71.400528,91.0699288 70.7695346,91.3168446 70.2757047,91.810658 C69.7818766,92.3044898 69.5349662,92.9354868 69.5349662,93.7036675 L69.5349662,109.506119 C69.5349662,110.274299 69.7818766,110.905296 70.2757047,111.39911 C70.7695346,111.892942 71.400528,112.139858 72.1687069,112.139858 L98.5061187,112.139858 C99.2742994,112.139858 99.9052965,111.892942 100.399128,111.39911 C100.89296,110.905296 101.139858,110.274299 101.139858,109.506119 Z M143.279733,141.111021 L143.279733,125.30857 C143.279733,124.540389 143.032818,123.909392 142.538986,123.41556 C142.045154,122.921729 141.414157,122.674831 140.645976,122.674831 L114.30857,122.674831 C113.540389,122.674831 112.909392,122.921729 112.41556,123.41556 C111.921747,123.909392 111.674831,124.540389 111.674831,125.30857 L111.674831,141.111021 C111.674831,141.879183 111.921747,142.51018 112.41556,143.004012 C112.909392,143.497844 113.540389,143.74476 114.30857,143.74476 L140.645976,143.74476 C141.414157,143.74476 142.045154,143.497844 142.538986,143.004012 C143.032818,142.51018 143.279733,141.879183 143.279733,141.111021 Z M185.419591,172.715911 L185.419591,156.913454 C185.419591,156.145292 185.172675,155.514294 184.678843,155.020463 C184.185012,154.526631 183.554033,154.279715 182.785852,154.279715 L156.448427,154.279715 C155.680247,154.279715 155.049268,154.526631 154.555436,155.020463 C154.061605,155.514294 153.814689,156.145292 153.814689,156.913454 L153.814689,172.715911 C153.814689,173.484089 154.061605,174.115083 154.555436,174.608913 C155.049268,175.102741 155.680247,175.349651 156.448427,175.349651 L182.785852,175.349651 C183.554033,175.349651 184.185012,175.102741 184.678843,174.608913 C185.172675,174.115083 185.419591,173.484089 185.419591,172.715911 Z M143.279733,109.506119 L143.279733,93.7036675 C143.279733,92.9354868 143.032818,92.3044898 142.538986,91.810658 C142.045154,91.3168446 141.414157,91.0699288 140.645976,91.0699288 L114.30857,91.0699288 C113.540389,91.0699288 112.909392,91.3168446 112.41556,91.810658 C111.921747,92.3044898 111.674831,92.9354868 111.674831,93.7036675 L111.674831,109.506119 C111.674831,110.274299 111.921747,110.905296 112.41556,111.39911 C112.909392,111.892942 113.540389,112.139858 114.30857,112.139858 L140.645976,112.139858 C141.414157,112.139858 142.045154,111.892942 142.538986,111.39911 C143.032818,110.905296 143.279733,110.274299 143.279733,109.506119 Z M185.419591,141.111021 L185.419591,125.30857 C185.419591,124.540389 185.172675,123.909392 184.678843,123.41556 C184.185012,122.921729 183.554033,122.674831 182.785852,122.674831 L156.448427,122.674831 C155.680247,122.674831 155.049268,122.921729 154.555436,123.41556 C154.061605,123.909392 153.814689,124.540389 153.814689,125.30857 L153.814689,141.111021 C153.814689,141.879183 154.061605,142.51018 154.555436,143.004012 C155.049268,143.497844 155.680247,143.74476 156.448427,143.74476 L182.785852,143.74476 C183.554033,143.74476 184.185012,143.497844 184.678843,143.004012 C185.172675,142.51018 185.419591,141.879183 185.419591,141.111021 Z M185.419591,109.506119 L185.419591,93.7036675 C185.419591,92.9354868 185.172675,92.3044898 184.678843,91.810658 C184.185012,91.3168446 183.554033,91.0699288 182.785852,91.0699288 L156.448427,91.0699288 C155.680247,91.0699288 155.049268,91.3168446 154.555436,91.810658 C154.061605,92.3044898 153.814689,92.9354868 153.814689,93.7036675 L153.814689,109.506119 C153.814689,110.274299 154.061605,110.905296 154.555436,111.39911 C155.049268,111.892942 155.680247,112.139858 156.448427,112.139858 L182.785852,112.139858 C183.554033,112.139858 184.185012,111.892942 184.678843,111.39911 C185.172675,110.905296 185.419591,110.274299 185.419591,109.506119 Z M195.954546,83.168694 L195.954546,172.715911 C195.954546,176.337322 194.665137,179.437425 192.086246,182.01631 C189.507355,184.595194 186.407255,185.884617 182.785852,185.884617 L72.1687069,185.884617 C68.5472953,185.884617 65.4471928,184.595194 62.8683072,182.01631 C60.2894231,179.437425 59,176.337322 59,172.715911 L59,83.168694 C59,79.5472916 60.2894231,76.4471909 62.8683072,73.8682998 C65.4471928,71.2894087 68.5472953,70 72.1687069,70 L182.785852,70 C186.407255,70 189.507355,71.2894087 192.086246,73.8682998 C194.665137,76.4471909 195.954546,79.5472916 195.954546,83.168694 Z" id="Page-1" fill="#FFFFFF"></path>
    </g>
</svg>