<!-- Generator: Adobe Illustrator 24.2.1, SVG Export Plug-In  -->
<svg version="1.1" xmlns="http://www.w3.org/2000/svg" xmlns:xlink="http://www.w3.org/1999/xlink" x="0px" y="0px" width="544.2px"
     height="544.2px" viewBox="0 0 544.2 544.2" style="overflow:visible;enable-background:new 0 0 544.2 544.2;"
     xml:space="preserve">
<defs>
</defs>
<g>
    <path style="fill:#563842;" d="M272.1,0C2.1,0,0,121.8,0,272.1s2.1,272.1,272.1,272.1s272.1-121.8,272.1-272.1S542.1,0,272.1,0z"/>
    <path style="fill:#FFFFFF;" d="M389.7,134.9c21.6,0,39.2,17.5,39.2,39.2v196c0,21.6-17.6,39.2-39.2,39.2H154.5
        c-21.7,0-39.2-17.6-39.2-39.2v-196c0-21.7,17.5-39.2,39.2-39.2H389.7z M252.5,272.1v-58.8h-98v58.8H252.5z M154.5,311.3v58.8h98
        v-58.8H154.5z M291.7,370.1h98v-58.8h-98V370.1z M389.7,272.1v-58.8h-98v58.8H389.7z"/>
</g>
</svg>
